{"title":"Shootout at Wadala (2013) 720p BRrip x264 Junaid-Zia (PimpRG)","uid":8810564,"size":1734515481,"categoryP":"video","categoryS":"hd___movies","magnet":"?xt=urn:btih:8051ba572fbc43daa3a0aaccf8ec92c3060e9bbb&amp;dn=Shootout+at+Wadala+%282013%29+720p+BRrip+x264+Junaid-Zia+%28PimpRG%29&amp;tr=udp%3A%2F%2Ftracker.openbittorrent.com%3A80&amp;tr=udp%3A%2F%2Fopen.demonii.com%3A1337&amp;tr=udp%3A%2F%2Ftracker.coppersurfer.tk%3A6969&amp;tr=udp%3A%2F%2Fexodus.desync.com%3A6969","seeders":1,"leechers":0,"uploader":"junaidzia","files":16,"time":1376446952,"description":"IMDB: \n &lt;a href=&quot;\nhttp://www.imdb.com/title/tt2301155/&quot; rel=&quot;nofollow&quot; target=&quot;_NEW&quot;&gt;\nhttp://www.imdb.com/title/tt2301155/&lt;/a&gt;\n\n\n\nGeneral\nFormat                         : Matroska\nFormat version                 : Version 4 / Version 2\nFile size                      : 1.60 GiB\nDuration                       : 2h 29mn\n\nVideo\nID                             : 1\nFormat                         : AVC\nFormat/Info                    : Advanced Video Codec\nFormat profile                 : &lt;a class=&quot;__cf_email__&quot; href=&quot;/cdn-cgi/l/email-protection&quot; data-cfemail=&quot;266e4f414e666a120817&quot;&gt;[email&amp;#160;protected]&lt;/a&gt;&lt;script cf-hash='f9e31' type=&quot;text/javascript&quot;&gt;\n/* &lt;![CDATA[ */!function(){try{var t=&quot;currentScript&quot;in document?document.currentScript:function(){for(var t=document.getElementsByTagName(&quot;script&quot;),e=t.length;e--;)if(t[e].getAttribute(&quot;cf-hash&quot;))return t[e]}();if(t&amp;&amp;t.previousSibling){var e,r,n,i,c=t.previousSibling,a=c.getAttribute(&quot;data-cfemail&quot;);if(a){for(e=&quot;&quot;,r=parseInt(a.substr(0,2),16),n=2;a.length-n;n+=2)i=parseInt(a.substr(n,2),16)^r,e+=String.fromCharCode(i);e=document.createTextNode(e),c.parentNode.replaceChild(e,c)}}}catch(u){}}();/* ]]&gt; */&lt;/script&gt;\nFormat settings, CABAC         : Yes\nFormat settings, ReFrames      : 5 frames\nCodec ID                       : V_MPEG4/ISO/AVC\nDuration                       : 2h 29mn\nWidth                          : 1 280 pixels\nHeight                         : 544 pixels\nDisplay aspect ratio           : 2.35:1\nFrame rate mode                : Constant\nFrame rate                     : 24.000 fps\nColor space                    : YUV\nChroma subsampling             : 4:2:0\nBit depth                      : 8 bits\nScan type                      : Progressive\nBits/(Pixel*Frame)             : 0.069\nStream size                    : 1.17 GiB (73%)\nTitle                          : Encoder Junaid-Zia\nWriting library                : x264 core 135 r2345 f0c1c53\n\nLanguage                       : Hindi\nDefault                        : Yes\nForced                         : No\n\nAudio\nID                             : 2\nFormat                         : AC-3\nFormat/Info                    : Audio Coding 3\nMode extension                 : CM (complete main)\nFormat settings, Endianness    : Big\nCodec ID                       : A_AC3\nDuration                       : 2h 29mn\nBit rate mode                  : Constant\nBit rate                       : 384 Kbps\nChannel(s)                     : 6 channels\nChannel positions              : Front: L C R, Side: L R, LFE\nSampling rate                  : 48.0 KHz\nBit depth                      : 16 bits\nCompression mode               : Lossy\nStream size                    : 412 MiB (25%)\nTitle                          : Encoder Junaid-Zia\nLanguage                       : Hindi\n\nText\nID                             : 3\nFormat                         : UTF-8\nCodec ID                       : S_TEXT/UTF8\nCodec ID/Info                  : UTF-8 Plain Text\nTitle                          : Encoder Junaid-Zia\nLanguage                       : English\n\nScreens:\n &lt;a href=&quot;\nhttp://imageshack.us/a/img690/7024/crkm.jpg&quot; rel=&quot;nofollow&quot; target=&quot;_NEW&quot;&gt;\nhttp://imageshack.us/a/img690/7024/crkm.jpg&lt;/a&gt; &lt;a href=&quot;\nhttp://imageshack.us/a/img32/8986/scju.jpg&quot; rel=&quot;nofollow&quot; target=&quot;_NEW&quot;&gt;\nhttp://imageshack.us/a/img32/8986/scju.jpg&lt;/a&gt; &lt;a href=&quot;\nhttp://imageshack.us/a/img20/2159/bwng.jpg&quot; rel=&quot;nofollow&quot; target=&quot;_NEW&quot;&gt;\nhttp://imageshack.us/a/img20/2159/bwng.jpg&lt;/a&gt; &lt;a href=&quot;\nhttp://imageshack.us/a/img546/8318/ip1j.jpg&quot; rel=&quot;nofollow&quot; target=&quot;_NEW&quot;&gt;\nhttp://imageshack.us/a/img546/8318/ip1j.jpg&lt;/a&gt; &lt;a href=&quot;\nhttp://imageshack.us/a/img41/5770/6tu5.jpg&quot; rel=&quot;nofollow&quot; target=&quot;_NEW&quot;&gt;\nhttp://imageshack.us/a/img41/5770/6tu5.jpg&lt;/a&gt; &lt;a href=&quot;\nhttp://imageshack.us/a/img109/2930/gok0.jpg&quot; rel=&quot;nofollow&quot; target=&quot;_NEW&quot;&gt;\nhttp://imageshack.us/a/img109/2930/gok0.jpg&lt;/a&gt; &lt;a href=&quot;\nhttp://imageshack.us/a/img94/776/xbln.jpg&quot; rel=&quot;nofollow&quot; target=&quot;_NEW&quot;&gt;\nhttp://imageshack.us/a/img94/776/xbln.jpg&lt;/a&gt; &lt;a href=&quot;\nhttp://imageshack.us/a/img197/7654/kuhk.jpg&quot; rel=&quot;nofollow&quot; target=&quot;_NEW&quot;&gt;\nhttp://imageshack.us/a/img197/7654/kuhk.jpg&lt;/a&gt; &lt;a href=&quot;\nhttp://imageshack.us/a/img401/8017/1yyy.jpg&quot; rel=&quot;nofollow&quot; target=&quot;_NEW&quot;&gt;\nhttp://imageshack.us/a/img401/8017/1yyy.jpg&lt;/a&gt; &lt;a href=&quot;\nhttp://imageshack.us/a/img41/8029/vfs2.jpg&quot; rel=&quot;nofollow&quot; target=&quot;_NEW&quot;&gt;\nhttp://imageshack.us/a/img41/8029/vfs2.jpg&lt;/a&gt;\n\n\n\n\nPimpRG Facebook Page:\n\nSujaidr Facebook Page:\n\nSeed After Downloading, Remember Sharing is Caring.","torrent":{"xt":"urn:btih:8051ba572fbc43daa3a0aaccf8ec92c3060e9bbb","amp;dn":"Shootout+at+Wadala+%282013%29+720p+BRrip+x264+Junaid-Zia+%28PimpRG%29","amp;tr":["udp%3A%2F%2Ftracker.openbittorrent.com%3A80","udp%3A%2F%2Fopen.demonii.com%3A1337","udp%3A%2F%2Ftracker.coppersurfer.tk%3A6969","udp%3A%2F%2Fexodus.desync.com%3A6969"],"infoHash":"8051ba572fbc43daa3a0aaccf8ec92c3060e9bbb","infoHashBuffer":{"type":"Buffer","data":[128,81,186,87,47,188,67,218,163,160,170,204,248,236,146,195,6,14,155,187]},"announce":[],"urlList":[]}}